<?xml version="1.0" standalone="no"?>
<!DOCTYPE svg PUBLIC "-//W3C//DTD SVG 20010904//EN"
 "http://www.w3.org/TR/2001/REC-SVG-20010904/DTD/svg10.dtd">
<svg version="1.0" xmlns="http://www.w3.org/2000/svg"
 width="512.000000pt" height="512.000000pt" viewBox="0 0 512.000000 512.000000"
 preserveAspectRatio="xMidYMid meet">

<g transform="translate(0.000000,512.000000) scale(0.100000,-0.100000)"
fill="#00defd" stroke="none">
<path d="M433 4786 c-148 -36 -304 -162 -371 -298 -81 -166 -82 -338 0 -507
67 -140 187 -242 348 -297 53 -18 129 -19 2150 -19 2021 0 2097 1 2150 19 161
55 281 157 348 297 111 230 71 469 -108 650 -82 83 -177 137 -278 158 -82 17
-4169 14 -4239 -3z"/>
<path d="M436 3114 c-221 -53 -395 -245 -428 -471 -42 -292 146 -570 433 -638
56 -13 316 -15 2119 -15 1803 0 2063 2 2119 15 225 54 400 244 433 473 42 291
-146 569 -433 637 -56 13 -314 15 -2124 14 -1749 -1 -2069 -3 -2119 -15z"/>
<path d="M465 1450 c-117 -24 -243 -96 -320 -183 -57 -64 -120 -192 -134 -271
-35 -192 20 -366 159 -507 82 -83 177 -137 278 -158 75 -16 4149 -16 4224 0
206 43 389 227 433 436 29 134 15 244 -46 371 -66 136 -171 230 -328 291 l-66
26 -2080 1 c-1144 1 -2098 -2 -2120 -6z"/>
</g>
</svg>
